<svg width="262" height="40" viewBox="0 0 262 40" fill="none" xmlns="http://www.w3.org/2000/svg">
<path fill-rule="evenodd" clip-rule="evenodd" d="M14 14H26V26H14V14ZM18 18V22H22V18H18Z" fill="black"/>
<path fill-rule="evenodd" clip-rule="evenodd" d="M0.585785 36.5858L10.5858 26.5858L13.4142 29.4142L3.41421 39.4143L0.585785 36.5858Z" fill="black"/>
<path fill-rule="evenodd" clip-rule="evenodd" d="M26.5858 10.5858L36.5858 0.585815L39.4142 3.41424L29.4142 13.4142L26.5858 10.5858Z" fill="black"/>
<path fill-rule="evenodd" clip-rule="evenodd" d="M10.5858 13.4142L0.585785 3.41424L3.41421 0.585815L13.4142 10.5858L10.5858 13.4142Z" fill="black"/>
<path fill-rule="evenodd" clip-rule="evenodd" d="M36.5858 39.4142L26.5858 29.4142L29.4142 26.5858L39.4142 36.5858L36.5858 39.4142Z" fill="black"/>
<path d="M160.245 24.9373C160.245 27.1692 160.58 27.4088 162.511 27.4088H165.133C167.183 27.4088 168.412 26.2025 168.412 24.4086C168.412 22.3053 166.949 21.2227 165.017 21.2227H160.245V24.9373ZM164.841 17.9129C166.685 17.9129 167.944 16.9852 167.944 15.2531C167.944 13.6135 166.802 12.6548 164.929 12.6548H160.245V17.9129H164.841ZM156 9.0047H165.368C167.622 9.0047 169.349 9.5923 170.432 10.6132C171.574 11.6958 172.101 13.0259 172.101 14.7581C172.101 17.0163 170.783 18.4697 168.822 19.1813V19.2739C171.135 19.9856 172.716 22.0268 172.716 24.7489C172.716 26.8212 172.101 28.2439 170.871 29.3576C169.671 30.4714 167.826 31.1208 165.602 31.1208H160.572C157.95 31.1208 156 29.1577 156 26.7635V9.0047Z" fill="black"/>
<path d="M183.899 25.5223V23.1404C183.197 23.5735 182.113 23.8212 181.118 24.0682C179.04 24.5632 178.015 25.0582 178.015 26.5428C178.015 28.0276 178.952 28.5537 180.357 28.5537C182.64 28.5537 183.899 27.0689 183.899 25.5223ZM183.87 29.3576H183.811C183.05 30.564 181.967 31.4919 179.391 31.4919C176.317 31.4919 174.151 29.7907 174.151 26.636C174.151 23.1404 176.844 22.0268 180.181 21.5318C182.669 21.1608 183.811 20.9443 183.811 19.7381C183.811 18.5937 182.962 17.851 181.294 17.851C179.42 17.851 178.513 18.5625 178.396 20.0784H174.853C174.97 17.2943 176.932 14.851 181.323 14.851C185.831 14.851 187.646 16.9852 187.646 20.6972V28.77C187.646 29.9764 187.822 30.6879 188.173 30.9661V31.1208H184.338C184.104 30.8117 183.957 30.0692 183.87 29.3576Z" fill="black"/>
<path d="M194.058 17.4181H194.145C195.17 15.717 196.546 14.8198 198.595 14.8198C201.698 14.8198 203.777 17.2944 203.777 20.7587V31.1209H199.795V21.3774C199.795 19.6761 198.859 18.4697 197.19 18.4697C195.433 18.4697 194.145 19.9545 194.145 22.1199V31.1209H190.164V17.1232L192.034 15.2532H194.058V17.4181Z" fill="black"/>
<path d="M211.915 23.883L210.188 25.7695V31.1208H206.236V9.00464H210.188V21.2536L215.516 15.2531H220.288L214.755 21.2847L220.961 31.1208H216.131L211.915 23.883Z" fill="black"/>
<path d="M222.22 15.2532H226.201V31.1209H222.22V15.2532Z" fill="black"/>
<path d="M224.165 13.0067C225.27 13.0067 226.166 12.1108 226.166 11.0057C226.166 9.90053 225.27 9.00464 224.165 9.00464C223.06 9.00464 222.164 9.90053 222.164 11.0057C222.164 12.1108 223.06 13.0067 224.165 13.0067Z" fill="black"/>
<path d="M232.671 17.418H232.759C233.783 15.7169 235.159 14.8198 237.209 14.8198C240.312 14.8198 242.39 17.2943 242.39 20.7586V31.1208H238.409V21.3773C238.409 19.676 237.472 18.4697 235.804 18.4697C234.047 18.4697 232.759 19.9545 232.759 22.1198V31.1208H228.778V16.8506L230.315 15.2531H232.671V17.418Z" fill="black"/>
<path d="M254.949 22.491C254.949 20.1711 253.779 18.1914 251.378 18.1914C249.358 18.1914 248.011 19.862 248.011 22.5217C248.011 25.2128 249.358 26.7906 251.408 26.7906C253.925 26.7906 254.949 24.8418 254.949 22.491ZM246.108 31.585H248.392C248.714 32.5747 249.563 33.3477 251.408 33.3477C253.661 33.3477 254.745 32.2033 254.745 30.0383V28.3061H254.657C253.779 29.3577 252.637 30.1616 250.734 30.1616C247.397 30.1619 244.118 27.3782 244.118 22.5835C244.118 17.8511 246.811 14.8196 250.617 14.8196C252.491 14.8196 253.866 15.5931 254.774 16.9232H254.833V15.2532H257.124L258.667 16.7242V29.9146C258.667 32.1414 257.994 33.6573 256.881 34.7397C255.623 35.9772 253.691 36.534 251.466 36.534C248.21 36.534 245.783 35.0001 244.786 32.9677" fill="black"/>
<path d="M57 9.00464H72.3661V12.7707H61.2358V17.7096H70.9927V21.3829H61.2358V27.3401H68.7188C71.5065 27.3401 72.5021 28.4566 72.4538 31.0751H57V9.00464Z" fill="black"/>
<path d="M78.6478 17.4006H78.7351C79.7573 15.703 81.1306 14.8077 83.1757 14.8077C86.2724 14.8077 88.3464 17.2771 88.3464 20.7342L88.3467 31.0751H84.3734V21.3517C84.3734 19.6539 83.4389 18.4501 81.7737 18.4501C80.0205 18.4501 78.7351 19.9318 78.7351 22.0927V31.0751H74.7625V17.0086L76.6266 15.2401H78.6478V17.4006Z" fill="black"/>
<path d="M99.7987 25.4881V23.1111C99.0978 23.5433 98.0168 23.7905 97.0233 24.0371C94.9493 24.531 93.9267 25.025 93.9267 26.5065C93.9267 27.9882 94.8616 28.5133 96.2643 28.5133C98.5427 28.5133 99.7987 27.0316 99.7987 25.4881ZM99.7694 29.3155H99.711C98.9517 30.5194 97.8708 31.4454 95.2998 31.4454C92.2325 31.4454 90.0707 29.7478 90.0705 26.5995C90.0705 23.1111 92.7582 21.9999 96.0888 21.5059C98.5717 21.1356 99.711 20.9195 99.711 19.7159C99.711 18.5738 98.8636 17.8326 97.1988 17.8326C95.3292 17.8326 94.4234 18.5427 94.3069 20.0555H90.7714C90.8885 17.2771 92.8459 14.8388 97.2277 14.8388C101.727 14.8388 103.538 16.9686 103.538 20.673V28.7292C103.538 29.933 103.713 30.6431 104.064 30.9207V31.0751H100.237C100.004 30.7666 99.8571 30.0256 99.7694 29.3155Z" fill="black"/>
<path d="M116.713 23.1728C116.713 20.2403 115.604 18.2033 113.384 18.2033C110.871 18.2033 109.936 20.3332 109.936 23.2653C109.936 26.1669 111.309 28.0193 113.53 28.0193C115.575 28.0193 116.713 26.2287 116.713 23.1728ZM109.936 29.0994H109.878V31.0749H106.051V9.00464H110.024V17.1539H110.111C110.929 15.8263 112.215 14.8075 114.289 14.8075C118.058 14.8075 120.745 18.234 120.745 23.1728C120.745 28.2969 118.174 31.5382 114.406 31.5382C112.303 31.5382 110.813 30.5811 109.936 29.0994Z" fill="black"/>
<path d="M122.645 9.00464H126.618V31.0751H122.645V9.00464Z" fill="black"/>
<path d="M132.49 21.4441H139.151C139.034 19.438 137.777 18.0487 135.966 18.0487C133.863 18.0487 132.841 19.376 132.49 21.4441ZM128.517 23.1424C128.517 18.4501 131.526 14.8077 135.908 14.8077C140.728 14.8077 143.299 18.6973 143.299 24.346H132.431C132.724 26.7843 134.009 28.2971 136.259 28.2971C137.807 28.2971 138.712 27.5561 139.151 26.3523H143.065C142.51 29.1613 140.144 31.5381 136.288 31.5381C131.322 31.5381 128.517 27.8651 128.517 23.1424Z" fill="black"/>
</svg>
