<svg id="logotype" xmlns="http://www.w3.org/2000/svg" width="573.187" height="105.5" viewBox="0 0 573.187 105.5">
  <metadata><?xpacket begin="﻿" id="W5M0MpCehiHzreSzNTczkc9d"?>
<x:xmpmeta xmlns:x="adobe:ns:meta/" x:xmptk="Adobe XMP Core 5.6-c142 79.160924, 2017/07/13-01:06:39        ">
   <rdf:RDF xmlns:rdf="http://www.w3.org/1999/02/22-rdf-syntax-ns#">
      <rdf:Description rdf:about=""/>
   </rdf:RDF>
</x:xmpmeta>
                                                                                                    
                                                                                                    
                                                                                                    
                                                                                                    
                                                                                                    
                                                                                                    
                                                                                                    
                                                                                                    
                                                                                                    
                                                                                                    
                                                                                                    
                                                                                                    
                                                                                                    
                                                                                                    
                                                                                                    
                                                                                                    
                                                                                                    
                                                                                                    
                                                                                                    
                                                                                                    
                           
<?xpacket end="w"?></metadata>
<defs>
    <style>
      .cls-1 {
        fill: #000;
      }

      .cls-1, .cls-2 {
        fill-rule: evenodd;
      }

      .cls-2 {
        fill: #49bb7f;
      }
    </style>
  </defs>
  <path id="Blockonomics" class="cls-1" d="M345.812,205.465a10.6,10.6,0,0,0,5.857-9.7,9.77,9.77,0,0,0-4.314-8.376q-4.316-3.086-12.376-3.086h-21.54V228.39h22.8q8.629,0,13.132-3.117a10.19,10.19,0,0,0,4.5-8.912,11.032,11.032,0,0,0-2.142-6.9,11.632,11.632,0,0,0-5.92-4h0Zm-12.093-13.478a10.446,10.446,0,0,1,5.732,1.291,4.335,4.335,0,0,1,1.952,3.873,4.413,4.413,0,0,1-1.952,3.905,10.238,10.238,0,0,1-5.732,1.323h-10.14V191.987h10.14Zm1.764,28.72h-11.9v-10.9h11.9q8.124,0,8.124,5.479a4.531,4.531,0,0,1-2.047,4.094,11.3,11.3,0,0,1-6.077,1.323h0Zm25.445,7.683h9.825V181.657h-9.825V228.39Zm35.081,0.5a20.13,20.13,0,0,0,9.573-2.236,16.68,16.68,0,0,0,6.613-6.2,18.145,18.145,0,0,0,0-18.013,16.682,16.682,0,0,0-6.613-6.2,21.679,21.679,0,0,0-19.178,0,16.612,16.612,0,0,0-6.645,6.2,18.145,18.145,0,0,0,0,18.013,16.61,16.61,0,0,0,6.645,6.2,20.311,20.311,0,0,0,9.605,2.236h0Zm0-8.062a8.287,8.287,0,0,1-6.236-2.55,10.735,10.735,0,0,1,0-13.667,8.285,8.285,0,0,1,6.236-2.551,8.181,8.181,0,0,1,6.2,2.551,10.841,10.841,0,0,1,0,13.667,8.184,8.184,0,0,1-6.2,2.55h0Zm41.505,8.062a18.655,18.655,0,0,0,9.353-2.267,13.538,13.538,0,0,0,5.826-6.3l-7.621-4.157a8.243,8.243,0,0,1-7.621,4.66,8.618,8.618,0,0,1-6.361-2.519,10.611,10.611,0,0,1,0-13.73,8.622,8.622,0,0,1,6.361-2.519,8.333,8.333,0,0,1,7.621,4.66l7.621-4.093a13.268,13.268,0,0,0-5.826-6.393A18.865,18.865,0,0,0,437.514,194a20.838,20.838,0,0,0-9.731,2.236,16.739,16.739,0,0,0-6.739,6.2,17.938,17.938,0,0,0,0,18.013,16.736,16.736,0,0,0,6.739,6.2,20.826,20.826,0,0,0,9.731,2.236h0Zm45.851-.5h11.9L479.9,208.866l14.108-14.36H482.294l-14.36,13.6V181.657h-9.825V228.39h9.825v-8.628l4.724-4.661Zm30.987,0.5a20.13,20.13,0,0,0,9.573-2.236,16.68,16.68,0,0,0,6.613-6.2,18.145,18.145,0,0,0,0-18.013,16.682,16.682,0,0,0-6.613-6.2,21.679,21.679,0,0,0-19.178,0,16.612,16.612,0,0,0-6.645,6.2,18.145,18.145,0,0,0,0,18.013,16.61,16.61,0,0,0,6.645,6.2,20.311,20.311,0,0,0,9.6,2.236h0Zm0-8.062a8.287,8.287,0,0,1-6.236-2.55,10.735,10.735,0,0,1,0-13.667,8.285,8.285,0,0,1,6.236-2.551,8.181,8.181,0,0,1,6.2,2.551,10.841,10.841,0,0,1,0,13.667,8.184,8.184,0,0,1-6.2,2.55h0ZM560.077,194a16.912,16.912,0,0,0-6.362,1.165,13.048,13.048,0,0,0-4.849,3.307v-3.968h-9.385V228.39h9.826V211.637q0-4.534,2.2-6.834a7.819,7.819,0,0,1,5.92-2.3,6.467,6.467,0,0,1,5.1,1.984q1.762,1.983,1.764,6.014V228.39h9.825v-19.4q0-7.431-3.874-11.211A13.945,13.945,0,0,0,560.077,194h0ZM599.5,228.894a20.131,20.131,0,0,0,9.574-2.236,16.686,16.686,0,0,0,6.613-6.2,18.145,18.145,0,0,0,0-18.013,16.689,16.689,0,0,0-6.613-6.2,21.681,21.681,0,0,0-19.179,0,16.616,16.616,0,0,0-6.644,6.2,18.139,18.139,0,0,0,0,18.013,16.613,16.613,0,0,0,6.644,6.2,20.316,20.316,0,0,0,9.605,2.236h0Zm0-8.062a8.285,8.285,0,0,1-6.235-2.55,10.735,10.735,0,0,1,0-13.667,8.282,8.282,0,0,1,6.235-2.551,8.182,8.182,0,0,1,6.2,2.551,10.841,10.841,0,0,1,0,13.667,8.185,8.185,0,0,1-6.2,2.55h0ZM668.028,194a16.581,16.581,0,0,0-6.959,1.449,13.906,13.906,0,0,0-5.26,4.093,11.5,11.5,0,0,0-4.66-4.125A14.566,14.566,0,0,0,644.662,194a15.574,15.574,0,0,0-6.015,1.134,12.389,12.389,0,0,0-4.629,3.275v-3.905h-9.385V228.39h9.825v-17q0-4.407,2.016-6.645a6.935,6.935,0,0,1,5.416-2.235q6.424,0,6.425,8V228.39h9.825v-17q0-4.407,2.015-6.645a7.012,7.012,0,0,1,5.48-2.235,5.868,5.868,0,0,1,4.755,1.984q1.668,1.983,1.669,6.014V228.39h9.825v-19.4q0-7.494-3.747-11.243T668.028,194h0ZM690.7,228.39h9.825V194.506H690.7V228.39Zm4.912-38.608a6.16,6.16,0,0,0,4.409-1.606,5.347,5.347,0,0,0,1.7-4.062,4.844,4.844,0,0,0-1.7-3.779,6.389,6.389,0,0,0-4.409-1.512,6.235,6.235,0,0,0-4.409,1.575,5.335,5.335,0,0,0,0,7.81,6.23,6.23,0,0,0,4.409,1.574h0Zm30.42,39.112a18.652,18.652,0,0,0,9.353-2.267,13.533,13.533,0,0,0,5.826-6.3l-7.621-4.157a8.243,8.243,0,0,1-7.621,4.66,8.62,8.62,0,0,1-6.361-2.519,10.614,10.614,0,0,1,0-13.73,8.624,8.624,0,0,1,6.361-2.519,8.331,8.331,0,0,1,7.621,4.66l7.621-4.093a13.263,13.263,0,0,0-5.826-6.393A18.863,18.863,0,0,0,726.034,194a20.834,20.834,0,0,0-9.73,2.236,16.735,16.735,0,0,0-6.74,6.2,17.944,17.944,0,0,0,0,18.013,16.732,16.732,0,0,0,6.74,6.2,20.821,20.821,0,0,0,9.73,2.236h0Zm32.247,0a24.553,24.553,0,0,0,8.6-1.354,12.063,12.063,0,0,0,5.511-3.81,8.953,8.953,0,0,0,1.889-5.606,8.133,8.133,0,0,0-1.952-5.794,10.226,10.226,0,0,0-4.6-2.866,58.375,58.375,0,0,0-6.8-1.48,30.01,30.01,0,0,1-5.417-1.2,2.25,2.25,0,0,1-1.7-2.2,2.592,2.592,0,0,1,1.574-2.267,9.931,9.931,0,0,1,4.724-.882,19.556,19.556,0,0,1,9.762,2.519l3.276-6.991a20.054,20.054,0,0,0-5.889-2.173,33.057,33.057,0,0,0-7.149-.787,23.122,23.122,0,0,0-8.408,1.386,11.954,11.954,0,0,0-5.416,3.873,9.274,9.274,0,0,0-1.858,5.7,8.237,8.237,0,0,0,1.983,5.92,10.641,10.641,0,0,0,4.693,2.9,50.105,50.105,0,0,0,6.865,1.449,25.236,25.236,0,0,1,5.227,1.071,2.185,2.185,0,0,1,1.7,2.078q0,3.087-6.235,3.086a22.964,22.964,0,0,1-6.3-.913,20.539,20.539,0,0,1-5.479-2.362l-3.275,7.054a21.538,21.538,0,0,0,6.424,2.614,32.9,32.9,0,0,0,8.251,1.039h0Z" transform="translate(-313.438 -147.344)"/>
  <path class="cls-1" d="M797.128,211.379a41.377,41.377,0,1,1,40.929,41.462A41.368,41.368,0,0,1,797.128,211.379Zm72.7,0.321a31.333,31.333,0,1,0-31.577,31.084A31.459,31.459,0,0,0,869.829,211.7Z" transform="translate(-313.438 -147.344)"/>
  <path id="Rectangle_1_copy" data-name="Rectangle 1 copy" class="cls-2" d="M875.262,184.36A44.958,44.958,0,0,0,845.2,166.436l11.311-19.08L886.618,165.2Z" transform="translate(-313.438 -147.344)"/>
  <path id="B" class="cls-1" d="M848.077,211.206a6.744,6.744,0,0,0,3.728-6.175,6.218,6.218,0,0,0-2.746-5.332q-2.746-1.964-7.878-1.964H827.469V225.8h14.514q5.492,0,8.359-1.984a6.486,6.486,0,0,0,2.867-5.673,7.022,7.022,0,0,0-1.363-4.39,7.4,7.4,0,0,0-3.769-2.546h0Zm-7.7-8.58a6.639,6.639,0,0,1,3.648.822,2.759,2.759,0,0,1,1.243,2.466,2.806,2.806,0,0,1-1.243,2.485,6.507,6.507,0,0,1-3.648.842h-6.455v-6.615h6.455Zm1.123,18.282h-7.578v-6.936H841.5q5.172,0,5.172,3.488a2.883,2.883,0,0,1-1.3,2.606,7.2,7.2,0,0,1-3.869.842h0Z" transform="translate(-313.438 -147.344)"/>
</svg>
