<?xml version="1.0" encoding="utf-8"?>
<!-- Generator: Adobe Illustrator 25.2.1, SVG Export Plug-In . SVG Version: 6.00 Build 0)  -->
<svg version="1.1" xmlns="http://www.w3.org/2000/svg" xmlns:xlink="http://www.w3.org/1999/xlink" x="0px" y="0px"
	 viewBox="0 0 200 44.3" style="enable-background:new 0 0 200 44.3;" xml:space="preserve">
<style type="text/css">
	.st0{fill:#FFFFFF;}
	.st1{fill:#FF00FF;}
	.st2{fill:#2A283C;}
	.st3{fill:#F15A24;}
	.st4{fill:#FF9F37;}
	.st5{fill:none;stroke:#3C3C64;stroke-width:0.5;stroke-linecap:round;stroke-linejoin:round;stroke-miterlimit:10;}
	.st6{fill:none;stroke:#3C3C64;stroke-width:0.5;stroke-miterlimit:10;}
	.st7{fill:#FFFFFF;stroke:#3C3C64;stroke-width:0.5;stroke-linecap:round;stroke-linejoin:round;stroke-miterlimit:10;}
	.st8{fill:#F86A56;}
	.st9{fill:#FFFFFF;stroke:#3C3C64;stroke-width:0.5;stroke-miterlimit:10;}
	.st10{fill:#2665E0;}
	.st11{fill:#338BFF;}
	.st12{fill:#111E7B;}
	.st13{fill:#84D548;}
	.st14{fill:#F58A1F;}
	.st15{fill:#C8DF36;}
	.st16{fill:#F2F2F4;}
	.st17{fill:#E6E6F0;}
	.st18{fill:#0087CA;}
	.st19{fill:#6E6E78;}
	.st20{fill-rule:evenodd;clip-rule:evenodd;fill:#E6E6F0;}
	.st21{fill:#6666FF;}
	.st22{fill:#6666FF;stroke:#F2F2F4;stroke-width:1.65;stroke-miterlimit:10;}
	.st23{fill:#F86A56;stroke:#2A283C;stroke-width:2;stroke-miterlimit:10;}
	.st24{fill:#E26C4A;}
	.st25{fill:none;stroke:#3C3C64;stroke-width:1.25;stroke-miterlimit:10;}
	.st26{fill:none;stroke:#3C3C64;stroke-width:1.25;stroke-linecap:round;stroke-linejoin:round;stroke-miterlimit:10;}
	.st27{fill:none;stroke:#3C3C64;stroke-linecap:round;stroke-linejoin:round;stroke-miterlimit:10;}
	.st28{fill:#FFFFFF;stroke:#3C3C64;stroke-width:1.25;stroke-linecap:round;stroke-linejoin:round;stroke-miterlimit:10;}
	.st29{fill:#FFFFFF;stroke:#3C3C64;stroke-linecap:round;stroke-linejoin:round;stroke-miterlimit:10;}
	.st30{fill:#3C3C64;}
	.st31{fill-rule:evenodd;clip-rule:evenodd;fill:#3C3C64;}
	.st32{fill:#FFFFFF;stroke:#2A283C;stroke-linecap:round;stroke-linejoin:round;stroke-miterlimit:10;}
	.st33{fill:#FFFFFF;stroke:#F86A56;stroke-linecap:round;stroke-linejoin:round;stroke-miterlimit:10;}
	.st34{fill:none;stroke:#2A283C;stroke-miterlimit:10;}
	.st35{fill:none;stroke:#2A283C;stroke-linecap:round;stroke-linejoin:round;stroke-miterlimit:10;}
	.st36{fill:none;stroke:#F86A56;stroke-linecap:round;stroke-linejoin:round;stroke-miterlimit:10;}
	.st37{fill-rule:evenodd;clip-rule:evenodd;fill:#F86A56;}
	.st38{fill:#E26C4A;stroke:#E26C4A;stroke-width:0.5;stroke-miterlimit:10;}
	.st39{fill:url(#SVGID_1_);}
	.st40{fill:url(#SVGID_2_);}
</style>
<g id="backgrounds">
</g>
<g id="Layer_1">
</g>
<g id="swatches">
</g>
<g id="type">
</g>
<g id="content">
	<g>
		<g>
			<path class="st18" d="M56.8,1h7.8c1.1,0,2.2,0.1,3.3,0.3c1,0.2,2,0.6,2.8,1.1c0.9,0.5,1.5,1.2,1.9,2.2c0.4,0.9,0.7,2.2,0.7,3.5
				c0,1.5-0.3,2.8-0.8,3.6c-0.5,0.9-1.2,1.6-2,2.2c-0.9,0.5-1.7,0.9-2.8,1.1c-1,0.2-2.2,0.3-3.2,0.3h-3v7.8h-4.7L56.8,1L56.8,1z
				 M64.7,11.5c1.5,0,2.5-0.3,3.1-0.9c0.6-0.6,0.9-1.4,0.9-2.5c0-1-0.3-1.9-0.9-2.4c-0.6-0.6-1.6-0.9-3.1-0.9h-3.2v6.6H64.7
				L64.7,11.5z"/>
			<path class="st18" d="M80.7,23.4c-0.6,0-1.1-0.1-1.7-0.3c-0.5-0.2-0.9-0.4-1.4-0.9c-0.4-0.3-0.7-0.9-0.9-1.4
				c-0.2-0.5-0.3-1.1-0.3-1.9c0-1.9,0.8-3.3,2.4-4.3c1.6-1,4-1.7,7.4-2v-0.4c0-0.6-0.2-1-0.4-1.4c-0.3-0.3-0.9-0.5-1.6-0.5
				c-0.9,0-1.9,0.2-2.8,0.6c-0.9,0.3-1.6,0.9-2.3,1.5l-2-2.8c0.3-0.3,0.9-0.7,1.3-1c0.5-0.3,1-0.7,1.6-0.9c0.6-0.3,1.3-0.4,2.2-0.7
				c0.8-0.2,1.6-0.3,2.7-0.3c2.2,0,3.6,0.5,4.6,1.6s1.4,2.7,1.4,4.7v6.1c0,0.9,0.1,1.7,0.1,2.4c0.1,0.6,0.2,1.1,0.3,1.6h-4.7
				c-0.1-0.3-0.2-0.7-0.3-1.1c-0.1-0.3-0.1-0.9-0.1-1.2c-0.7,0.9-1.5,1.5-2.4,1.9C82.8,23.3,81.8,23.4,80.7,23.4z M82.5,19.8
				c0.9,0,1.5-0.2,2.1-0.4s1-0.6,1.5-0.9v-3c-1.9,0.2-3.2,0.5-4,1c-0.9,0.4-1.2,1.1-1.2,1.8c0,0.5,0.2,0.9,0.4,1.1
				C81.6,19.7,82,19.8,82.5,19.8z"/>
			<path class="st18" d="M98.5,29.4c-1.1,0-2.1-0.1-2.8-0.2c-0.7-0.1-1.2-0.3-1.6-0.3l0.9-3.7c0.2,0.1,0.6,0.2,1.1,0.3
				c0.5,0.1,1.1,0.2,1.8,0.2c0.5,0,0.9-0.1,1.2-0.3c0.3-0.2,0.6-0.6,0.8-1.1l0.3-0.8L94.5,7.2h4.8l3.4,10.4h0.1l3.4-10.4h4.5
				l-6.5,17.7c-0.3,0.7-0.5,1.4-0.9,1.9c-0.3,0.5-0.7,1-1.1,1.4c-0.4,0.3-0.9,0.7-1.5,0.9C100,29.3,99.3,29.4,98.5,29.4z"/>
			<path class="st18" d="M119.6,5.1h-6.4V1h17.4v4h-6.4v18.2h-4.7V5.1z"/>
			<path class="st18" d="M133.8,7.2h4.7v2.7h0.1c0.2-0.3,0.4-0.7,0.8-1s0.7-0.7,1.1-0.9c0.4-0.3,0.9-0.5,1.5-0.7s1.2-0.3,1.9-0.3
				h0.2l-0.1,4.3c-0.1,0-0.3-0.1-0.6-0.1c-0.3,0-0.5-0.1-0.7-0.1c-0.9,0-1.7,0.2-2.4,0.7c-0.7,0.4-1.2,0.9-1.7,1.6v9.9h-4.7V7.2
				L133.8,7.2z"/>
			<path class="st18" d="M151.5,23.4c-0.6,0-1.1-0.1-1.7-0.3c-0.5-0.2-0.9-0.4-1.4-0.9c-0.4-0.3-0.7-0.9-0.9-1.4
				c-0.2-0.5-0.3-1.1-0.3-1.9c0-1.9,0.8-3.3,2.4-4.3c1.6-1,4-1.7,7.4-2v-0.4c0-0.6-0.2-1-0.4-1.4c-0.3-0.3-0.9-0.5-1.6-0.5
				c-0.9,0-1.9,0.2-2.8,0.6c-0.9,0.3-1.6,0.9-2.3,1.5l-2-2.8c0.3-0.3,0.9-0.7,1.3-1s1-0.7,1.6-0.9s1.3-0.4,2.2-0.7
				c0.8-0.2,1.6-0.3,2.7-0.3c2.2,0,3.6,0.5,4.6,1.6s1.4,2.7,1.4,4.7v6.1c0,0.9,0.1,1.7,0.1,2.4c0.1,0.6,0.2,1.1,0.3,1.6h-4.7
				c-0.1-0.3-0.2-0.7-0.3-1.1c-0.1-0.3-0.1-0.9-0.1-1.2c-0.7,0.9-1.5,1.5-2.4,1.9C153.7,23.3,152.7,23.4,151.5,23.4z M153.4,19.8
				c0.9,0,1.5-0.2,2.1-0.4s1.1-0.6,1.5-0.9v-3c-1.9,0.2-3.2,0.5-4,1c-0.9,0.4-1.2,1.1-1.2,1.8c0,0.5,0.2,0.9,0.4,1.1
				C152.4,19.7,152.9,19.8,153.4,19.8z"/>
			<path class="st18" d="M173.4,23.5c-0.9,0-1.8-0.2-2.7-0.4c-0.9-0.3-1.7-0.7-2.4-1.4s-1.3-1.5-1.7-2.6c-0.4-1.1-0.7-2.4-0.7-3.9
				c0-1.6,0.3-2.9,0.7-4s1.1-1.9,1.9-2.6c0.8-0.6,1.6-1.1,2.5-1.4c0.9-0.3,1.8-0.4,2.7-0.4c1,0,1.9,0.2,2.7,0.4
				c0.8,0.3,1.4,0.6,1.9,1.1c0.5,0.4,0.9,0.9,1.3,1.6c0.3,0.6,0.6,1.2,0.9,1.9l-3.9,1.4c-0.3-1-0.7-1.7-1.1-2.2
				c-0.4-0.4-1-0.6-1.7-0.6c-0.9,0-1.7,0.4-2.2,1.2c-0.6,0.9-0.9,2-0.9,3.6c0,0.7,0.1,1.4,0.2,2s0.3,1.1,0.5,1.6
				c0.3,0.4,0.6,0.8,0.9,1c0.3,0.3,0.9,0.3,1.4,0.3c0.6,0,1.2-0.2,1.7-0.6c0.5-0.4,0.9-1.1,1.3-2.2l3.8,1.4
				c-0.3,0.6-0.6,1.2-0.9,1.8c-0.3,0.6-0.9,1.1-1.4,1.6c-0.6,0.4-1.2,0.9-2,1.1C175.3,23.4,174.4,23.5,173.4,23.5z"/>
			<path class="st18" d="M191.1,23.5c-0.9,0-2-0.2-2.9-0.4c-0.9-0.3-1.8-0.8-2.5-1.4c-0.7-0.7-1.4-1.5-1.7-2.6
				c-0.4-1.1-0.7-2.4-0.7-3.9c0-1.6,0.3-2.8,0.8-3.9c0.5-1.1,1.1-1.9,1.9-2.6c0.8-0.7,1.6-1.1,2.5-1.4c0.9-0.3,1.7-0.4,2.5-0.4
				s1.6,0.1,2.4,0.3c0.9,0.3,1.6,0.7,2.2,1.4c0.7,0.7,1.2,1.6,1.7,2.8c0.4,1.1,0.7,2.7,0.7,4.5v0.7h-10.2c0.1,1.4,0.5,2.2,1.1,2.8
				s1.5,0.9,2.4,0.9c0.9,0,1.8-0.2,2.6-0.6s1.5-0.9,2-1.4l1.8,2.8C196,22.7,193.8,23.5,191.1,23.5z M193.9,13.7
				c-0.2-2.2-1.2-3.4-2.9-3.4c-0.7,0-1.4,0.3-1.9,0.8c-0.6,0.5-0.9,1.4-1.1,2.6H193.9z"/>
		</g>
		<g>
			<path class="st18" d="M37.5,4.7c2,0,3.7,1.6,3.7,3.7v11.7h-1.9l4.3,6.9l4.1-6.9h-2V8.4C45.9,3.8,42.1,0,37.5,0l0,0H10.2
				C5.6,0,1.9,3.8,1.9,8.4v6.3h4.7V8.4c0-2.1,1.6-3.7,3.7-3.7H37.5"/>
			<path class="st14" d="M10.2,39.3c-2,0-3.7-1.6-3.7-3.7V23.9h1.9l-4.3-6.9L0,23.9h2v11.7c0,4.6,3.8,8.4,8.4,8.4l0,0h27.3
				c4.6,0,8.4-3.8,8.4-8.4v-6.4h-4.7v6.4c0,2-1.6,3.7-3.7,3.7L10.2,39.3"/>
			<path class="st14" d="M23.9,32.9c-6.7,0-12.2-4.9-12.2-11h4.6c0,3.5,3.4,6.5,7.8,6.5s7.8-2.8,7.8-6.5h4.6
				C36.2,28,30.7,32.9,23.9,32.9z"/>
		</g>
		<g>
			<g>
				<path class="st19" d="M59.5,44.3c-0.6,0-1.1,0-1.5-0.1c-0.4-0.1-0.7-0.2-1-0.3c-0.3-0.1-0.4-0.3-0.6-0.5s-0.2-0.4-0.2-0.7
					c0-0.4,0.1-0.6,0.3-0.9c0.2-0.2,0.5-0.4,0.8-0.6c-0.3-0.2-0.5-0.5-0.5-0.9c0-0.3,0.1-0.5,0.3-0.7c0.2-0.2,0.4-0.4,0.6-0.6
					c-0.3-0.2-0.6-0.5-0.8-0.9c-0.2-0.3-0.3-0.7-0.3-1.2c0-0.4,0.1-0.7,0.2-1c0.1-0.3,0.3-0.6,0.6-0.8c0.2-0.2,0.5-0.4,0.9-0.5
					c0.3-0.1,0.7-0.2,1.2-0.2c0.5,0,0.9,0.1,1.2,0.2c0.3,0.1,0.6,0.3,0.9,0.5c0.2-0.2,0.5-0.3,0.8-0.5c0.3-0.1,0.6-0.2,0.9-0.2v1.3
					c-0.2,0-0.3,0-0.5,0S62.2,36,62,36c0.2,0.3,0.2,0.6,0.2,0.9c0,0.4-0.1,0.7-0.2,1c-0.1,0.3-0.3,0.6-0.5,0.8
					c-0.2,0.2-0.5,0.4-0.9,0.5c-0.3,0.1-0.7,0.2-1.2,0.2c-0.2,0-0.4,0-0.5,0c-0.1,0-0.3-0.1-0.4-0.1c-0.1,0.1-0.2,0.1-0.2,0.2
					c-0.1,0.1-0.1,0.2-0.1,0.2c0,0.1,0.1,0.2,0.2,0.3c0.1,0.1,0.3,0.1,0.6,0.1l1.2,0.1c1,0.1,1.7,0.2,2.1,0.5
					c0.4,0.3,0.6,0.8,0.6,1.4c0,0.4-0.1,0.7-0.2,0.9c-0.2,0.3-0.4,0.5-0.7,0.7c-0.3,0.2-0.7,0.3-1.1,0.4
					C60.5,44.2,60,44.3,59.5,44.3z M59.7,43.1c0.6,0,1-0.1,1.3-0.2c0.3-0.1,0.5-0.3,0.5-0.6c0-0.1,0-0.2-0.1-0.3
					c-0.1-0.1-0.1-0.2-0.3-0.2c-0.1-0.1-0.3-0.1-0.5-0.1c-0.2,0-0.5-0.1-0.8-0.1l-1.2-0.1c-0.1,0-0.3,0-0.4,0
					c-0.2,0.1-0.4,0.2-0.5,0.4c-0.1,0.2-0.1,0.3-0.1,0.5c0,0.3,0.2,0.5,0.5,0.6C58.5,43.1,59,43.1,59.7,43.1z M59.5,38.3
					c0.4,0,0.8-0.1,1-0.3c0.2-0.2,0.4-0.5,0.4-1c0-0.4-0.1-0.8-0.3-1c-0.2-0.2-0.6-0.3-1-0.3c-0.4,0-0.8,0.1-1,0.3
					c-0.2,0.2-0.4,0.6-0.4,1c0,0.4,0.1,0.8,0.4,1C58.7,38.2,59.1,38.3,59.5,38.3z"/>
				<path class="st19" d="M66.8,41.7c-0.3,0-0.5,0-0.8-0.1c-0.2-0.1-0.4-0.2-0.6-0.3c-0.2-0.1-0.3-0.3-0.4-0.6
					c-0.1-0.2-0.1-0.5-0.1-0.8c0-0.4,0.1-0.7,0.2-1c0.2-0.3,0.4-0.6,0.8-0.8c0.4-0.2,0.8-0.4,1.4-0.6c0.6-0.2,1.2-0.3,2-0.4v-0.2
					c0-0.4-0.1-0.6-0.3-0.8c-0.2-0.2-0.5-0.2-0.8-0.2c-0.5,0-0.9,0.1-1.3,0.3c-0.4,0.2-0.7,0.4-1,0.7l-0.8-1
					c0.4-0.3,0.8-0.6,1.4-0.9c0.5-0.2,1.2-0.4,1.9-0.4c0.4,0,0.8,0.1,1.1,0.2s0.6,0.3,0.7,0.5c0.2,0.2,0.3,0.5,0.4,0.8
					c0.1,0.3,0.1,0.7,0.1,1.1v2.9c0,0.4,0,0.8,0,1c0,0.3,0.1,0.5,0.1,0.7h-1.6c0-0.1-0.1-0.3-0.1-0.4c0-0.1,0-0.3,0-0.5
					c-0.3,0.4-0.7,0.6-1.1,0.8S67.3,41.7,66.8,41.7z M67.3,40.4c0.4,0,0.8-0.1,1.1-0.2c0.3-0.1,0.6-0.3,0.8-0.6v-1.5
					c-0.9,0.1-1.6,0.3-2.1,0.6c-0.5,0.2-0.7,0.6-0.7,0.9c0,0.3,0.1,0.5,0.3,0.6C66.8,40.4,67,40.4,67.3,40.4z"/>
				<path class="st19" d="M76,41.7c-0.4,0-0.8,0-1-0.1c-0.3-0.1-0.5-0.2-0.6-0.4C74.1,41,74,40.8,74,40.6c-0.1-0.2-0.1-0.5-0.1-0.8
					v-3.9h-1.2v-1.3h1.2v-2.4h1.6v2.4h1.7v1.3h-1.7v3.4c0,0.4,0.1,0.6,0.2,0.8c0.1,0.2,0.4,0.2,0.8,0.2c0.1,0,0.2,0,0.4,0
					c0.1,0,0.2,0,0.3-0.1v1.3c0,0-0.1,0-0.2,0c-0.1,0-0.2,0-0.3,0c-0.1,0-0.2,0-0.3,0C76.2,41.7,76.1,41.7,76,41.7z"/>
				<path class="st19" d="M82.2,41.7c-0.4,0-0.8-0.1-1.2-0.2c-0.4-0.1-0.7-0.4-1-0.6c-0.3-0.3-0.5-0.7-0.7-1.1
					c-0.2-0.5-0.3-1-0.3-1.6c0-0.7,0.1-1.2,0.3-1.7c0.2-0.5,0.5-0.8,0.8-1.1c0.3-0.3,0.7-0.5,1-0.6c0.4-0.1,0.7-0.2,1.1-0.2
					c0.4,0,0.7,0.1,1.1,0.2c0.4,0.1,0.7,0.3,0.9,0.6c0.3,0.3,0.5,0.7,0.7,1.2c0.2,0.5,0.2,1.1,0.2,1.8v0.4h-4.6
					c0,0.6,0.2,1.1,0.5,1.4s0.7,0.4,1.2,0.4c0.4,0,0.8-0.1,1.1-0.2c0.3-0.1,0.5-0.3,0.8-0.6l0.8,0.8c-0.4,0.4-0.8,0.7-1.2,0.9
					C83.4,41.6,82.8,41.7,82.2,41.7z M83.7,37.4c-0.1-1.1-0.6-1.6-1.5-1.6c-0.2,0-0.4,0-0.5,0.1c-0.2,0.1-0.3,0.2-0.5,0.3
					c-0.1,0.1-0.3,0.3-0.4,0.5c-0.1,0.2-0.2,0.5-0.2,0.8H83.7z"/>
				<path class="st19" d="M86.7,34.6h1.6l0.7,2.9c0.1,0.2,0.1,0.4,0.1,0.6c0,0.2,0.1,0.3,0.1,0.5c0,0.2,0.1,0.3,0.1,0.5
					s0.1,0.4,0.1,0.6h0c0.1-0.2,0.1-0.4,0.1-0.6c0-0.2,0.1-0.4,0.1-0.5c0-0.2,0.1-0.3,0.1-0.5c0-0.2,0.1-0.4,0.1-0.6l0.7-2.9h1.3
					l0.7,2.9c0.1,0.2,0.1,0.4,0.1,0.5c0,0.2,0.1,0.3,0.1,0.5c0,0.2,0.1,0.3,0.1,0.5c0,0.2,0.1,0.4,0.1,0.6h0
					c0.1-0.2,0.1-0.4,0.1-0.6c0-0.2,0.1-0.4,0.1-0.5c0-0.2,0.1-0.3,0.1-0.5c0-0.2,0.1-0.3,0.1-0.5l0.8-2.9H96l-2,7h-1.5l-1.2-4.8h0
					l-1.2,4.8h-1.4L86.7,34.6z"/>
				<path class="st19" d="M99.5,41.7c-0.3,0-0.5,0-0.7-0.1c-0.2-0.1-0.4-0.2-0.6-0.3c-0.2-0.1-0.3-0.3-0.4-0.6
					c-0.1-0.2-0.1-0.5-0.1-0.8c0-0.4,0.1-0.7,0.2-1c0.2-0.3,0.4-0.6,0.8-0.8c0.4-0.2,0.8-0.4,1.4-0.6c0.6-0.2,1.2-0.3,2-0.4v-0.2
					c0-0.4-0.1-0.6-0.3-0.8c-0.2-0.2-0.5-0.2-0.8-0.2c-0.5,0-0.9,0.1-1.3,0.3c-0.4,0.2-0.7,0.4-1,0.7l-0.8-1
					c0.4-0.3,0.8-0.6,1.4-0.9c0.5-0.2,1.2-0.4,1.9-0.4c0.4,0,0.8,0.1,1.1,0.2c0.3,0.1,0.6,0.3,0.7,0.5s0.3,0.5,0.4,0.8
					c0.1,0.3,0.1,0.7,0.1,1.1v2.9c0,0.4,0,0.8,0,1c0,0.3,0.1,0.5,0.1,0.7h-1.6c0-0.1-0.1-0.3-0.1-0.4c0-0.1,0-0.3,0-0.5
					c-0.3,0.4-0.7,0.6-1.1,0.8C100.4,41.6,100,41.7,99.5,41.7z M100,40.4c0.4,0,0.8-0.1,1.1-0.2c0.3-0.1,0.6-0.3,0.8-0.6v-1.5
					c-0.9,0.1-1.6,0.3-2.1,0.6c-0.5,0.2-0.7,0.6-0.7,0.9c0,0.3,0.1,0.5,0.3,0.6C99.5,40.4,99.8,40.4,100,40.4z"/>
				<path class="st19" d="M106.8,44.3c-0.4,0-0.7,0-1-0.1c-0.2,0-0.5-0.1-0.6-0.1l0.4-1.3c0.1,0,0.2,0.1,0.4,0.1
					c0.2,0,0.4,0.1,0.7,0.1c0.3,0,0.5-0.1,0.7-0.2c0.2-0.1,0.3-0.3,0.4-0.6l0.2-0.5l-2.6-7h1.6l1.7,5.1h0l1.7-5.1h1.5l-2.8,7.7
					c-0.1,0.3-0.2,0.6-0.4,0.8c-0.1,0.2-0.3,0.4-0.5,0.6c-0.2,0.2-0.4,0.3-0.6,0.4C107.4,44.2,107.1,44.3,106.8,44.3z"/>
				<path class="st19" d="M120.6,41.7c-0.4,0-0.8,0-1-0.1c-0.3-0.1-0.5-0.2-0.6-0.4c-0.2-0.2-0.3-0.4-0.3-0.6
					c-0.1-0.2-0.1-0.5-0.1-0.8v-3.9h-1.2v-1.3h1.2v-2.4h1.6v2.4h1.7v1.3h-1.7v3.4c0,0.4,0.1,0.6,0.2,0.8c0.1,0.2,0.4,0.2,0.8,0.2
					c0.1,0,0.2,0,0.4,0c0.1,0,0.2,0,0.3-0.1v1.3c0,0-0.1,0-0.2,0c-0.1,0-0.2,0-0.3,0c-0.1,0-0.2,0-0.3,0
					C120.8,41.7,120.7,41.7,120.6,41.7z"/>
				<path class="st19" d="M127,41.7c-0.4,0-0.8-0.1-1.2-0.2c-0.4-0.1-0.7-0.4-1-0.7c-0.3-0.3-0.6-0.7-0.7-1.1
					c-0.2-0.5-0.3-1-0.3-1.6c0-0.6,0.1-1.2,0.3-1.7c0.2-0.5,0.4-0.8,0.7-1.1s0.7-0.5,1-0.6c0.4-0.1,0.8-0.2,1.2-0.2
					c0.4,0,0.8,0.1,1.2,0.2c0.4,0.1,0.7,0.4,1,0.6s0.6,0.7,0.7,1.1c0.2,0.5,0.3,1,0.3,1.7c0,0.6-0.1,1.2-0.3,1.6
					c-0.2,0.5-0.4,0.8-0.7,1.1c-0.3,0.3-0.7,0.5-1,0.7C127.8,41.7,127.4,41.7,127,41.7z M127,40.4c0.6,0,1-0.2,1.3-0.6
					c0.3-0.4,0.4-1,0.4-1.7c0-0.3,0-0.6-0.1-0.9c-0.1-0.3-0.2-0.5-0.3-0.7c-0.1-0.2-0.3-0.4-0.5-0.5c-0.2-0.1-0.5-0.2-0.8-0.2
					c-0.6,0-1,0.2-1.3,0.6c-0.3,0.4-0.4,0.9-0.4,1.7c0,0.7,0.1,1.2,0.4,1.6S126.4,40.4,127,40.4z"/>
				<path class="st19" d="M136.6,31.9h1.6v3.7c0.1-0.1,0.2-0.2,0.4-0.4c0.2-0.1,0.3-0.2,0.5-0.3c0.2-0.1,0.4-0.2,0.7-0.3
					c0.3-0.1,0.5-0.1,0.8-0.1c0.6,0,1.1,0.2,1.4,0.5s0.5,0.9,0.5,1.6v5H141V37c0-0.8-0.3-1.1-1-1.1c-0.3,0-0.7,0.1-1,0.2
					c-0.3,0.2-0.6,0.4-0.9,0.7v4.8h-1.6V31.9z"/>
				<path class="st19" d="M146.7,41.7c-0.3,0-0.5,0-0.8-0.1c-0.2-0.1-0.4-0.2-0.6-0.3c-0.2-0.1-0.3-0.3-0.4-0.6
					c-0.1-0.2-0.1-0.5-0.1-0.8c0-0.4,0.1-0.7,0.2-1c0.2-0.3,0.4-0.6,0.8-0.8c0.4-0.2,0.8-0.4,1.4-0.6c0.6-0.2,1.2-0.3,2-0.4v-0.2
					c0-0.4-0.1-0.6-0.3-0.8c-0.2-0.2-0.5-0.2-0.8-0.2c-0.5,0-0.9,0.1-1.3,0.3c-0.4,0.2-0.7,0.4-1,0.7l-0.8-1
					c0.4-0.3,0.8-0.6,1.4-0.9c0.5-0.2,1.2-0.4,1.9-0.4c0.4,0,0.8,0.1,1.1,0.2c0.3,0.1,0.6,0.3,0.7,0.5s0.3,0.5,0.4,0.8
					c0.1,0.3,0.1,0.7,0.1,1.1v2.9c0,0.4,0,0.8,0,1c0,0.3,0.1,0.5,0.1,0.7h-1.6c0-0.1-0.1-0.3-0.1-0.4c0-0.1,0-0.3,0-0.5
					c-0.3,0.4-0.7,0.6-1.1,0.8C147.6,41.6,147.2,41.7,146.7,41.7z M147.2,40.4c0.4,0,0.8-0.1,1.1-0.2c0.3-0.1,0.6-0.3,0.8-0.6v-1.5
					c-0.9,0.1-1.6,0.3-2.1,0.6c-0.5,0.2-0.7,0.6-0.7,0.9c0,0.3,0.1,0.5,0.3,0.6C146.7,40.4,146.9,40.4,147.2,40.4z"/>
				<path class="st19" d="M153.3,34.6h1.6v0.9c0.2-0.3,0.5-0.5,0.9-0.7c0.3-0.2,0.8-0.3,1.3-0.3c0.4,0,0.7,0.1,1.1,0.2
					c0.3,0.1,0.6,0.4,0.8,0.7c0.2,0.3,0.4,0.7,0.6,1.1c0.1,0.5,0.2,1,0.2,1.6s-0.1,1.1-0.2,1.6c-0.1,0.5-0.3,0.8-0.6,1.1
					c-0.2,0.3-0.5,0.5-0.9,0.7c-0.4,0.1-0.7,0.2-1.2,0.2c-0.4,0-0.7-0.1-1-0.2c-0.3-0.1-0.6-0.4-0.9-0.7v3.4h-1.6V34.6z M156.4,40.4
					c0.6,0,1-0.2,1.3-0.6c0.3-0.4,0.4-1,0.4-1.7c0-0.7-0.1-1.3-0.4-1.7s-0.7-0.6-1.2-0.6c-0.3,0-0.6,0.1-0.9,0.3
					c-0.3,0.2-0.5,0.4-0.7,0.6v2.8c0.2,0.3,0.5,0.5,0.7,0.6C155.8,40.3,156.1,40.4,156.4,40.4z"/>
				<path class="st19" d="M161.9,34.6h1.6v0.9c0.2-0.3,0.5-0.5,0.9-0.7c0.3-0.2,0.8-0.3,1.3-0.3c0.4,0,0.7,0.1,1.1,0.2
					c0.3,0.1,0.6,0.4,0.8,0.7c0.2,0.3,0.4,0.7,0.6,1.1c0.1,0.5,0.2,1,0.2,1.6s-0.1,1.1-0.2,1.6c-0.1,0.5-0.3,0.8-0.6,1.1
					c-0.2,0.3-0.5,0.5-0.9,0.7c-0.4,0.1-0.7,0.2-1.2,0.2c-0.4,0-0.7-0.1-1-0.2c-0.3-0.1-0.6-0.4-0.9-0.7v3.4h-1.6V34.6z M165,40.4
					c0.6,0,1-0.2,1.3-0.6c0.3-0.4,0.4-1,0.4-1.7c0-0.7-0.1-1.3-0.4-1.7s-0.7-0.6-1.2-0.6c-0.3,0-0.6,0.1-0.9,0.3
					c-0.3,0.2-0.5,0.4-0.7,0.6v2.8c0.2,0.3,0.5,0.5,0.7,0.6C164.5,40.3,164.8,40.4,165,40.4z"/>
				<path class="st19" d="M171.3,44.3c-0.4,0-0.7,0-1-0.1c-0.2,0-0.5-0.1-0.6-0.1l0.4-1.3c0.1,0,0.2,0.1,0.4,0.1
					c0.2,0,0.4,0.1,0.7,0.1c0.3,0,0.5-0.1,0.7-0.2c0.2-0.1,0.3-0.3,0.4-0.6l0.2-0.5l-2.6-7h1.6l1.7,5.1h0l1.7-5.1h1.5l-2.9,7.7
					c-0.1,0.3-0.2,0.6-0.4,0.8c-0.1,0.2-0.3,0.4-0.5,0.6c-0.2,0.2-0.4,0.3-0.6,0.4C171.9,44.2,171.6,44.3,171.3,44.3z"/>
			</g>
		</g>
		<g>
			<path class="st18" d="M198.3,4.1c0.3,0,0.6,0.1,0.8,0.2c0.3,0.1,0.5,0.3,0.6,0.6c0.1,0.3,0.2,0.5,0.2,0.8c0,0.3-0.1,0.6-0.2,0.8
				c-0.1,0.3-0.4,0.5-0.6,0.6c-0.3,0.1-0.5,0.2-0.8,0.2s-0.6-0.1-0.8-0.2c-0.3-0.1-0.5-0.4-0.6-0.6c-0.1-0.3-0.2-0.5-0.2-0.8
				c0-0.3,0.1-0.6,0.2-0.8c0.1-0.3,0.4-0.5,0.6-0.6C197.8,4.2,198.1,4.1,198.3,4.1z M198.3,4.4c-0.2,0-0.4,0.1-0.7,0.2
				c-0.2,0.1-0.4,0.3-0.5,0.5c-0.1,0.2-0.2,0.4-0.2,0.7c0,0.2,0.1,0.5,0.2,0.7c0.1,0.2,0.3,0.4,0.5,0.5c0.2,0.1,0.4,0.2,0.7,0.2
				c0.2,0,0.5-0.1,0.7-0.2c0.2-0.1,0.4-0.3,0.5-0.5c0.1-0.2,0.2-0.4,0.2-0.7c0-0.2-0.1-0.5-0.2-0.7c-0.1-0.2-0.3-0.4-0.5-0.5
				C198.8,4.5,198.6,4.4,198.3,4.4z M197.6,6.7V4.9h0.4c0.3,0,0.5,0,0.6,0c0.1,0,0.2,0,0.3,0.1c0.1,0,0.1,0.1,0.2,0.2
				c0,0.1,0.1,0.2,0.1,0.3c0,0.1,0,0.2-0.1,0.3c-0.1,0.1-0.2,0.1-0.3,0.2c0.1,0,0.1,0,0.1,0.1c0,0,0.1,0.1,0.1,0.1
				c0,0,0.1,0.1,0.1,0.2l0.2,0.4h-0.4l-0.1-0.3c-0.1-0.2-0.2-0.3-0.2-0.4c-0.1,0-0.1-0.1-0.2-0.1h-0.1v0.7H197.6z M197.9,5.7h0.1
				c0.2,0,0.3,0,0.4,0c0.1,0,0.1,0,0.1-0.1c0,0,0-0.1,0-0.1c0,0,0-0.1,0-0.1c0,0-0.1-0.1-0.1-0.1c-0.1,0-0.2,0-0.4,0h-0.1V5.7z"/>
		</g>
	</g>
</g>
<g id="pwr30">
</g>
<g id="Layer_8">
</g>
<g id="ICONS">
</g>
<g id="art">
</g>
<g id="duo_icons">
</g>
<g id="Layer_4">
</g>
</svg>
