<svg version="1.1" viewBox="0 0 92.604 19.304" xmlns="http://www.w3.org/2000/svg">
 <g transform="translate(-3.9163 -2.7518)" fill="#63666a" shape-rendering="geometricPrecision">
  <path d="m7.2045 4.7303v0.4196q0.97907-1.2079 2.0344-1.7674 1.0554-0.57218 2.3904-0.57218 1.6021 0 2.9499 0.82648 1.3478 0.82649 2.1234 2.4159 0.78834 1.5894 0.78834 3.7637 0 1.6021-0.45775 2.9499-0.44503 1.3351-1.2334 2.2506-0.78834 0.90278-1.8691 1.3987-1.0681 0.48318-2.3014 0.48318-1.4877 0-2.5049-0.59761-1.0045-0.59761-1.92-1.7547v5.2132q0 2.2887-1.6657 2.2887-0.97907 0-1.2969-0.59761-0.31788-0.5849-0.31788-1.7165v-14.978q0-0.99178 0.43232-1.475 0.43232-0.49589 1.1825-0.49589 0.73748 0 1.1952 0.50861 0.47046 0.49589 0.47046 1.4368zm6.8026 5.0479q0-1.3732-0.4196-2.3523-0.4196-0.99178-1.1698-1.5131-0.73748-0.53404-1.6403-0.53404-1.4368 0-2.4286 1.1316-0.97907 1.1316-0.97907 3.3314 0 2.0726 0.97907 3.2296 0.97907 1.1444 2.4286 1.1444 0.86463 0 1.6021-0.49589 0.73748-0.50861 1.1825-1.5131 0.44503-1.0045 0.44503-2.4286zm13.414 5.1624q-1.2588 0.97907-2.4413 1.475-1.1698 0.48318-2.632 0.48318-1.3351 0-2.3523-0.52132-1.0045-0.53404-1.5512-1.4368-0.54675-0.90278-0.54675-1.9581 0-1.4241 0.90278-2.4286 0.90278-1.0045 2.4795-1.3478 0.33059-0.076291 1.6403-0.34331 1.3097-0.26702 2.2379-0.48318 0.94092-0.22887 2.0344-0.54675-0.06357-1.3732-0.55947-2.009-0.48318-0.64847-2.0217-0.64847-1.3224 0-1.9963 0.36874-0.66119 0.36874-1.1444 1.1062-0.47046 0.73748-0.6739 0.97907-0.19073 0.22887-0.8392 0.22887-0.5849 0-1.0172-0.36874-0.4196-0.38145-0.4196-0.96635 0-0.91549 0.64847-1.7801 0.64847-0.86463 2.0217-1.4241t3.4204-0.55947q2.2887 0 3.5984 0.54675 1.3097 0.53404 1.8437 1.7038 0.54675 1.1698 0.54675 3.1025 0 1.2207-0.01271 2.0726 0 0.85192-0.01271 1.8946 0 0.97907 0.31788 2.0471 0.3306 1.0554 0.3306 1.3605 0 0.53404-0.50861 0.97907-0.49589 0.43232-1.1316 0.43232-0.53404 0-1.0554-0.49589-0.52132-0.5086-1.1062-1.4622zm-0.22887-5.0225q-0.76291 0.27973-2.2252 0.59761-1.4495 0.30516-2.009 0.45775-0.55947 0.13987-1.0681 0.57218-0.50861 0.4196-0.50861 1.1825 0 0.78834 0.59761 1.3478 0.59761 0.54675 1.564 0.54675 1.0299 0 1.8946-0.44503 0.87735-0.45774 1.2842-1.1698 0.47046-0.78834 0.47046-2.5939z"/>
  <path d="m35.699 17.331 0.31788-0.77562-4.2723-10.757q-0.39417-0.92821-0.39417-1.3478 0-0.44503 0.22887-0.82648 0.22887-0.38145 0.62304-0.61033 0.40688-0.22887 0.8392-0.22887 0.75019 0 1.1316 0.48318 0.38145 0.47046 0.6739 1.3605l2.9372 8.5446 2.7846-7.947q0.33059-0.96635 0.59761-1.5131 0.26702-0.54675 0.55947-0.73748 0.30516-0.19073 0.85192-0.19073 0.39417 0 0.75019 0.21616 0.36874 0.20344 0.55947 0.55947 0.20344 0.35602 0.20344 0.75019-0.05086 0.24159-0.1653 0.68662-0.11444 0.44503-0.27973 0.90278l-4.5266 11.851q-0.5849 1.564-1.1444 2.454-0.55947 0.89006-1.4877 1.3605-0.91549 0.48318-2.4795 0.48318-1.5258 0-2.2887-0.33059t-0.76291-1.2079q0-0.59761 0.35602-0.92821 0.36874-0.31788 1.0808-0.31788 0.27973 0 0.54675 0.07629 0.33059 0.07629 0.57218 0.07629 0.59761 0 0.94092-0.17801 0.34331-0.17801 0.61033-0.62304 0.27973-0.43231 0.63576-1.2842z"/>
  <path d="m53.767 6.1385 2.4739 8.8799q0.10416 0.39061 0.20832 0.72914 0.1302 0.33853 0.28645 0.59893 0.18228 0.23436 0.44269 0.39061 0.2604 0.15624 0.65102 0.15624 0.75518 0 1.0156-0.46873 0.28645-0.46873 0.57289-1.3281l3.4634-10.234q0.15624-0.46873 0.20832-0.67706 0.05208-0.20832 0.05208-0.41665 0-0.36457-0.31249-0.67706-0.28645-0.31249-0.72914-0.31249-0.59893 0-0.8333 0.39061-0.20832 0.36457-0.41665 1.0416l-2.9947 9.7132-2.6301-9.4267q-0.20833-0.75518-0.46873-1.2239-0.26041-0.49477-0.98954-0.49477t-0.98954 0.49477q-0.26041 0.46873-0.46873 1.2239l-2.6301 9.4267-2.9947-9.7132q-0.20833-0.67706-0.44269-1.0416-0.20832-0.39061-0.80726-0.39061-0.46873 0-0.75518 0.31249-0.28645 0.31249-0.28645 0.67706 0 0.20833 0.05208 0.41665 0.07812 0.20832 0.20832 0.67706l3.4634 10.234q0.28645 0.85934 0.54685 1.3281 0.28645 0.46873 1.0416 0.46873 0.39061 0 0.65102-0.15624 0.26041-0.15624 0.41665-0.39061 0.18228-0.26041 0.28645-0.59893 0.1302-0.33853 0.23436-0.72914zm18.814 8.5413q0.10416 0.36457 0.20832 0.75518 0.1302 0.39061 0.31249 0.72914 0.18228 0.31249 0.41665 0.52081 0.23436 0.20832 0.57289 0.20832 0.44269 0 0.75518-0.28645 0.33853-0.26041 0.33853-0.59894 0-0.31249-0.1302-0.67706-0.10416-0.39061-0.1302-0.49477-0.1302-0.31249-0.2604-0.80726-0.10416-0.49477-0.10416-1.4322 0-0.23437 0-0.80726 0.02604-0.59893 0.02604-1.276 0.02604-0.67706 0.02604-1.276 0.02604-0.62498 0.02604-0.88538 0-1.1718-0.1302-2.1874-0.1302-1.0156-0.67705-1.7708-0.54685-0.75518-1.6666-1.1718-1.0937-0.44269-3.0207-0.44269-1.8489 0-2.9947 0.46873-1.1197 0.46873-1.7447 1.0937-0.62498 0.59893-0.8333 1.2239-0.20833 0.59893-0.20833 0.88538 0 0.41665 0.28645 0.7031 0.31249 0.26041 0.72914 0.26041 0.52081 0 0.72914-0.31249 0.20832-0.33853 0.39061-0.78122 0.20832-0.52081 0.59893-0.88538 0.41665-0.36457 0.91142-0.57289 0.52081-0.23437 1.0937-0.31249 0.59894-0.10416 1.1979-0.10416 1.1197 0 1.7187 0.28645 0.62498 0.28645 0.91142 0.78122 0.28645 0.49477 0.33853 1.1197 0.07812 0.62498 0.10416 1.302-0.44269 0.15624-0.72914 0.23437-0.26041 0.078122-0.54685 0.15624-0.20832 0.052081-0.75518 0.15624-0.52081 0.10416-1.1197 0.20833-0.59893 0.10416-1.1458 0.20833-0.54685 0.10416-0.78122 0.15624-0.59893 0.1302-1.3802 0.33853-0.75518 0.18228-1.4322 0.62498-0.67706 0.41665-1.1458 1.1458-0.46873 0.72914-0.46873 1.8749 0 0.7031 0.26041 1.4062 0.26041 0.67706 0.80726 1.2239 0.54685 0.54685 1.3541 0.88538 0.8333 0.33853 1.953 0.33853 1.0937 0 1.953-0.26041 0.88538-0.23437 1.5364-0.57289 0.67706-0.36457 1.1197-0.72914 0.46873-0.39061 0.72914-0.65102zm-0.18228-5.13q0 1.1458-0.10416 2.0572-0.07812 0.88538-0.46873 1.5624-0.28645 0.52081-0.75518 0.88538-0.46873 0.36457-1.0416 0.59894-0.54685 0.23437-1.1458 0.36457-0.57289 0.10416-1.1197 0.10416-0.7031 0-1.1979-0.20832-0.49477-0.23437-0.80726-0.54685-0.28645-0.33853-0.44269-0.72914-0.1302-0.39061-0.1302-0.75518 0-0.18228 0.05208-0.46873 0.07812-0.28645 0.26041-0.57289 0.18228-0.31249 0.52081-0.57289 0.33853-0.26041 0.91142-0.41665 0.80726-0.20833 1.7708-0.36457 0.9635-0.18228 2.1874-0.46873 0.52081-0.1302 0.88538-0.23437 0.36457-0.1302 0.62498-0.23437zm4.4139 5.4946q0 0.59894 0.02604 0.9635 0.05208 0.36457 0.31249 0.57289 0.31249 0.31249 0.80726 0.31249 0.1302 0 0.31249-0.05208 0.20833-0.02604 0.36457-0.18228 0.18228-0.1302 0.31249-0.36457 0.1302-0.2604 0.1302-0.7031v-4.8956q0-1.1718 0.10416-2.2135t0.41665-1.8228 0.85934-1.2239q0.57289-0.46873 1.4843-0.46873 0.36457 0 0.62498 0.078122 0.26041 0.052081 0.46873 0.1302 0.20832 0.052081 0.39061 0.1302 0.18228 0.052081 0.39061 0.052081 0.26041 0 0.57289-0.26041 0.33853-0.28645 0.33853-0.78122 0-0.36457-0.26041-0.65102-0.26041-0.28645-0.67706-0.46873-0.39061-0.20832-0.85934-0.31249-0.46873-0.10416-0.88538-0.10416-0.62498 0-1.0937 0.20832-0.46873 0.18228-0.8333 0.52081-0.36457 0.31249-0.7031 0.78122-0.31249 0.44269-0.65102 0.9635v-1.0416q0-0.23437-0.02604-0.46873 0-0.26041-0.10416-0.46873-0.078123-0.23437-0.28645-0.36457-0.18228-0.1302-0.54685-0.1302-0.36457 0-0.57289 0.1302-0.20832 0.1302-0.31249 0.36457-0.07812 0.20832-0.10416 0.46873 0 0.23437 0 0.46873zm17.695-4.7654q0.33853 0 0.67706-0.02604 0.36457-0.02604 0.65102-0.15624 0.31249-0.1302 0.49477-0.41665 0.18228-0.31249 0.18228-0.85934 0-0.28645-0.07812-0.8333-0.078124-0.57289-0.31249-1.25-0.20833-0.67706-0.62498-1.3802-0.41665-0.7031-1.0937-1.276-0.67706-0.57289-1.6406-0.93746-0.9635-0.36457-2.2916-0.36457-1.6406 0-2.8384 0.54685-1.1979 0.54685-1.9791 1.5104-0.78122 0.93746-1.1718 2.2395-0.39061 1.276-0.39061 2.7343 0 1.4843 0.36457 2.7863 0.39061 1.302 1.1718 2.2655 0.80726 0.93746 2.0051 1.4843 1.2239 0.54685 2.8905 0.54685 1.25 0 2.1353-0.28645 0.91142-0.28645 1.5364-0.7031 0.62498-0.41665 0.98954-0.88538 0.39061-0.46873 0.62498-0.8333 0.15624-0.26041 0.28645-0.57289 0.15624-0.31249 0.15624-0.62498 0-0.33853-0.26041-0.59893-0.23437-0.26041-0.59894-0.26041-0.41665 0-0.62498 0.26041-0.20832 0.23436-0.33853 0.41665-0.28645 0.44269-0.62498 0.88538-0.31249 0.44269-0.75518 0.78122-0.41665 0.33853-1.0156 0.54685-0.57289 0.20833-1.4062 0.20833-0.80726 0-1.5624-0.26041-0.72914-0.26041-1.3281-0.8333-0.57289-0.59894-0.93746-1.5364-0.36457-0.9635-0.39061-2.3176zm-8.0726-1.5624q0.05208-0.44269 0.15624-1.0416 0.1302-0.59893 0.46873-1.1979 0.18228-0.33853 0.46873-0.7031 0.28645-0.36457 0.7031-0.65102 0.41665-0.28645 0.93746-0.46873 0.54685-0.20833 1.2239-0.20833 1.1197 0 1.901 0.49477 0.78122 0.46873 1.2239 1.2239 0.44269 0.75518 0.52081 1.3802 0.10416 0.59893 0.15624 1.1718z"/>
 </g>
</svg>
